<?xml version="1.0" encoding="UTF-8" standalone="no"?>
<!-- Created with Inkscape (http://www.inkscape.org/) -->

<svg
   xmlns:dc="http://purl.org/dc/elements/1.1/"
   xmlns:cc="http://creativecommons.org/ns#"
   xmlns:rdf="http://www.w3.org/1999/02/22-rdf-syntax-ns#"
   xmlns:svg="http://www.w3.org/2000/svg"
   xmlns="http://www.w3.org/2000/svg"
   xmlns:sodipodi="http://sodipodi.sourceforge.net/DTD/sodipodi-0.dtd"
   xmlns:inkscape="http://www.inkscape.org/namespaces/inkscape"
   width="128"
   height="216"
   id="svg2"
   version="1.1"
   inkscape:version="0.48.3.1 r9886"
   sodipodi:docname="digitaldigit8.svg">
  <defs
     id="defs4" />
  <sodipodi:namedview
     id="base"
     pagecolor="#ffffff"
     bordercolor="#666666"
     borderopacity="1.0"
     inkscape:pageopacity="0.0"
     inkscape:pageshadow="2"
     inkscape:zoom="3.5694444"
     inkscape:cx="3.2342245"
     inkscape:cy="108"
     inkscape:document-units="px"
     inkscape:current-layer="layer1"
     showgrid="false"
     inkscape:window-width="1280"
     inkscape:window-height="969"
     inkscape:window-x="0"
     inkscape:window-y="27"
     inkscape:window-maximized="1" />
  <metadata
     id="metadata7">
    <rdf:RDF>
      <cc:Work
         rdf:about="">
        <dc:format>image/svg+xml</dc:format>
        <dc:type
           rdf:resource="http://purl.org/dc/dcmitype/StillImage" />
        <dc:title></dc:title>
      </cc:Work>
    </rdf:RDF>
  </metadata>
  <g
     inkscape:label="Ebene 1"
     inkscape:groupmode="layer"
     id="layer1"
     transform="translate(0,-836.36218)">
    <path
       style="opacity:1;fill:#33b5e5;fill-opacity:1;stroke:none"
       d="m 32,1022.3622 64,0 10,10 -10,10 -64,0 -10,-10 z"
       id="rect2993"
       inkscape:connector-curvature="0"
       sodipodi:nodetypes="ccccccc" />
    <path
       style="opacity:1;fill:#33b5e5;fill-opacity:1;stroke:none"
       d="m 32,934.36218 64,0 10,10 -10,10 -64,0 -10,-10 z"
       id="rect2993-2"
       inkscape:connector-curvature="0"
       sodipodi:nodetypes="ccccccc" />
    <path
       style="opacity:1;fill:#1a1a1a;fill-opacity:1;stroke:none"
       d="m 30,956.36219 0,64.00001 -10,10 -10,-10 0,-64.00001 10,-10 z"
       id="rect2993-5"
       inkscape:connector-curvature="0"
       sodipodi:nodetypes="ccccccc" />
    <path
       style="opacity:1;fill:#33b5e5;fill-opacity:1;stroke:none"
       d="m 118,956.36216 0,64.00004 -10,10 -10,-10 0,-64.00004 10,-10 z"
       id="rect2993-5-7"
       inkscape:connector-curvature="0"
       sodipodi:nodetypes="ccccccc" />
    <path
       style="opacity:1;fill:#33b5e5;fill-opacity:1;stroke:none"
       d="m 30.000005,868.36214 0,64.00004 -10.000005,10 -10,-10 0,-64.00004 10,-10 z"
       id="rect2993-5-1"
       inkscape:connector-curvature="0"
       sodipodi:nodetypes="ccccccc" />
    <path
       style="opacity:1;fill:#33b5e5;fill-opacity:1;stroke:none"
       d="m 118,868.36218 0,64 -10,10 -10,-10 0,-64 10,-10 z"
       id="rect2993-5-73"
       inkscape:connector-curvature="0"
       sodipodi:nodetypes="ccccccc" />
    <path
       style="opacity:1;fill:#33b5e5;fill-opacity:1;stroke:none"
       d="m 32,846.36218 64,0 10,10 -10,10 -64,0 -10,-10 z"
       id="rect2993-24"
       inkscape:connector-curvature="0"
       sodipodi:nodetypes="ccccccc" />
  </g>
</svg>
